<?xml version="1.0" encoding="UTF-8" standalone="no"?>
<!DOCTYPE svg PUBLIC "-//W3C//DTD SVG 1.1//EN"
 "http://www.w3.org/Graphics/SVG/1.1/DTD/svg11.dtd">
<!-- Generated by graphviz version 3.0.0 (0)
 -->
<!-- Title: storageBlock_C::blockSize Pages: 1 -->
<svg width="465pt" height="66pt"
 viewBox="0.00 0.00 465.00 66.00" xmlns="http://www.w3.org/2000/svg" xmlns:xlink="http://www.w3.org/1999/xlink">
<g id="graph0" class="graph" transform="scale(1 1) rotate(0) translate(4 62)">
<title>storageBlock_C::blockSize</title>
<polygon fill="white" stroke="transparent" points="-4,4 -4,-62 461,-62 461,4 -4,4"/>
<!-- Node1 -->
<g id="node1" class="node">
<title>Node1</title>
<g id="a_node1"><a xlink:title="get the storage space size in bytes reserved for the block.">
<polygon fill="#bfbfbf" stroke="black" points="312,-19.5 312,-38.5 457,-38.5 457,-19.5 312,-19.5"/>
<text text-anchor="middle" x="384.5" y="-26.5" font-family="Helvetica,sans-Serif" font-size="10.00">storageBlock_C::blockSize</text>
</a>
</g>
</g>
<!-- Node2 -->
<g id="node2" class="node">
<title>Node2</title>
<g id="a_node2"><a xlink:href="classblockMem__C.html#a6ac5c94d5e447ba91f9a92766651ffd4" target="_top" xlink:title=" ">
<polygon fill="white" stroke="black" points="144,-38.5 144,-57.5 276,-57.5 276,-38.5 144,-38.5"/>
<text text-anchor="middle" x="210" y="-45.5" font-family="Helvetica,sans-Serif" font-size="10.00">blockMem_C::blockSize</text>
</a>
</g>
</g>
<!-- Node1&#45;&gt;Node2 -->
<g id="edge1" class="edge">
<title>Node1&#45;&gt;Node2</title>
<path fill="none" stroke="midnightblue" d="M301.78,-38C293.16,-38.95 284.48,-39.91 276.09,-40.83"/>
<polygon fill="midnightblue" stroke="midnightblue" points="302.29,-41.47 311.84,-36.89 301.52,-34.51 302.29,-41.47"/>
</g>
<!-- Node3 -->
<g id="node3" class="node">
<title>Node3</title>
<g id="a_node3"><a xlink:href="classstorageBlock__C.html#a5689bada4bede0c81ab36fe2f06cc9f0" target="_top" xlink:title="print info about the storage block to the serial.">
<polygon fill="white" stroke="black" points="149.5,-0.5 149.5,-19.5 270.5,-19.5 270.5,-0.5 149.5,-0.5"/>
<text text-anchor="middle" x="210" y="-7.5" font-family="Helvetica,sans-Serif" font-size="10.00">storageBlock_C::print</text>
</a>
</g>
</g>
<!-- Node1&#45;&gt;Node3 -->
<g id="edge2" class="edge">
<title>Node1&#45;&gt;Node3</title>
<path fill="none" stroke="midnightblue" d="M301.82,-20C291.32,-18.85 280.72,-17.68 270.66,-16.57"/>
<polygon fill="midnightblue" stroke="midnightblue" points="301.52,-23.49 311.84,-21.11 302.29,-16.53 301.52,-23.49"/>
</g>
<!-- Node4 -->
<g id="node4" class="node">
<title>Node4</title>
<g id="a_node4"><a xlink:href="classblockMem__C.html#a9230be465ff59edbed66fe536b3df2be" target="_top" xlink:title=" ">
<polygon fill="white" stroke="black" points="0,-0.5 0,-19.5 108,-19.5 108,-0.5 0,-0.5"/>
<text text-anchor="middle" x="54" y="-7.5" font-family="Helvetica,sans-Serif" font-size="10.00">blockMem_C::print</text>
</a>
</g>
</g>
<!-- Node3&#45;&gt;Node4 -->
<g id="edge3" class="edge">
<title>Node3&#45;&gt;Node4</title>
<path fill="none" stroke="midnightblue" d="M139.19,-10C128.83,-10 118.3,-10 108.35,-10"/>
<polygon fill="midnightblue" stroke="midnightblue" points="139.46,-13.5 149.46,-10 139.46,-6.5 139.46,-13.5"/>
</g>
</g>
</svg>
