<?xml version="1.0" encoding="UTF-8" standalone="no"?>
<!DOCTYPE svg PUBLIC "-//W3C//DTD SVG 1.1//EN"
 "http://www.w3.org/Graphics/SVG/1.1/DTD/svg11.dtd">
<!-- Generated by graphviz version 3.0.0 (0)
 -->
<!-- Title: storageBlock_C::print Pages: 1 -->
<svg width="310pt" height="66pt"
 viewBox="0.00 0.00 310.00 66.00" xmlns="http://www.w3.org/2000/svg" xmlns:xlink="http://www.w3.org/1999/xlink">
<g id="graph0" class="graph" transform="scale(1 1) rotate(0) translate(4 62)">
<title>storageBlock_C::print</title>
<polygon fill="white" stroke="transparent" points="-4,4 -4,-62 306,-62 306,4 -4,4"/>
<!-- Node1 -->
<g id="node1" class="node">
<title>Node1</title>
<g id="a_node1"><a xlink:title="print info about the storage block to the serial.">
<polygon fill="#bfbfbf" stroke="black" points="0,-19.5 0,-38.5 121,-38.5 121,-19.5 0,-19.5"/>
<text text-anchor="middle" x="60.5" y="-26.5" font-family="Helvetica,sans-Serif" font-size="10.00">storageBlock_C::print</text>
</a>
</g>
</g>
<!-- Node2 -->
<g id="node2" class="node">
<title>Node2</title>
<g id="a_node2"><a xlink:href="$classstorageBlock__C.html#a2467b7e6f601f96efc42a6c32a023522" xlink:title="get block end index. i.e. the address of last byte used by the block. If block size is 0 there isn&#39;t ...">
<polygon fill="white" stroke="black" points="158,-38.5 158,-57.5 301,-57.5 301,-38.5 158,-38.5"/>
<text text-anchor="middle" x="229.5" y="-45.5" font-family="Helvetica,sans-Serif" font-size="10.00">storageBlock_C::blockEnd</text>
</a>
</g>
</g>
<!-- Node1&#45;&gt;Node2 -->
<g id="edge1" class="edge">
<title>Node1&#45;&gt;Node2</title>
<path fill="none" stroke="midnightblue" d="M121.32,-35.81C129.96,-36.79 138.96,-37.81 147.92,-38.83"/>
<polygon fill="midnightblue" stroke="midnightblue" points="147.66,-42.33 157.99,-39.98 148.45,-35.37 147.66,-42.33"/>
</g>
<!-- Node3 -->
<g id="node3" class="node">
<title>Node3</title>
<g id="a_node3"><a xlink:href="$classstorageBlock__C.html#ab118a805d45d5b6208fbd31dface7e39" xlink:title="get the storage space size in bytes reserved for the block.">
<polygon fill="white" stroke="black" points="157,-0.5 157,-19.5 302,-19.5 302,-0.5 157,-0.5"/>
<text text-anchor="middle" x="229.5" y="-7.5" font-family="Helvetica,sans-Serif" font-size="10.00">storageBlock_C::blockSize</text>
</a>
</g>
</g>
<!-- Node1&#45;&gt;Node3 -->
<g id="edge2" class="edge">
<title>Node1&#45;&gt;Node3</title>
<path fill="none" stroke="midnightblue" d="M121.32,-22.19C129.59,-21.25 138.21,-20.27 146.79,-19.3"/>
<polygon fill="midnightblue" stroke="midnightblue" points="147.3,-22.76 156.84,-18.15 146.51,-15.81 147.3,-22.76"/>
</g>
</g>
</svg>
