<?xml version="1.0" encoding="UTF-8" standalone="no"?>
<!DOCTYPE svg PUBLIC "-//W3C//DTD SVG 1.1//EN"
 "http://www.w3.org/Graphics/SVG/1.1/DTD/svg11.dtd">
<!-- Generated by graphviz version 3.0.0 (0)
 -->
<!-- Title: storageBlock_C::blockEnd Pages: 1 -->
<svg width="461pt" height="66pt"
 viewBox="0.00 0.00 461.00 66.00" xmlns="http://www.w3.org/2000/svg" xmlns:xlink="http://www.w3.org/1999/xlink">
<g id="graph0" class="graph" transform="scale(1 1) rotate(0) translate(4 62)">
<title>storageBlock_C::blockEnd</title>
<polygon fill="white" stroke="transparent" points="-4,4 -4,-62 457,-62 457,4 -4,4"/>
<!-- Node1 -->
<g id="node1" class="node">
<title>Node1</title>
<g id="a_node1"><a xlink:title="get block end index. i.e. the address of last byte used by the block. If block size is 0 there isn&#39;t ...">
<polygon fill="#bfbfbf" stroke="black" points="310,-19.5 310,-38.5 453,-38.5 453,-19.5 310,-19.5"/>
<text text-anchor="middle" x="381.5" y="-26.5" font-family="Helvetica,sans-Serif" font-size="10.00">storageBlock_C::blockEnd</text>
</a>
</g>
</g>
<!-- Node2 -->
<g id="node2" class="node">
<title>Node2</title>
<g id="a_node2"><a xlink:href="$classblockMem__C.html#a60818204acd6616f5513548b18b49a98" xlink:title=" ">
<polygon fill="white" stroke="black" points="144,-38.5 144,-57.5 274,-57.5 274,-38.5 144,-38.5"/>
<text text-anchor="middle" x="209" y="-45.5" font-family="Helvetica,sans-Serif" font-size="10.00">blockMem_C::blockEnd</text>
</a>
</g>
</g>
<!-- Node1&#45;&gt;Node2 -->
<g id="edge1" class="edge">
<title>Node1&#45;&gt;Node2</title>
<path fill="none" stroke="midnightblue" d="M299.65,-38.01C291.06,-38.97 282.42,-39.93 274.07,-40.86"/>
<polygon fill="midnightblue" stroke="midnightblue" points="300.12,-41.48 309.67,-36.89 299.35,-34.52 300.12,-41.48"/>
</g>
<!-- Node3 -->
<g id="node3" class="node">
<title>Node3</title>
<g id="a_node3"><a xlink:href="$classstorageBlock__C.html#a5689bada4bede0c81ab36fe2f06cc9f0" xlink:title="print info about the storage block to the serial.">
<polygon fill="white" stroke="black" points="148.5,-0.5 148.5,-19.5 269.5,-19.5 269.5,-0.5 148.5,-0.5"/>
<text text-anchor="middle" x="209" y="-7.5" font-family="Helvetica,sans-Serif" font-size="10.00">storageBlock_C::print</text>
</a>
</g>
</g>
<!-- Node1&#45;&gt;Node3 -->
<g id="edge2" class="edge">
<title>Node1&#45;&gt;Node3</title>
<path fill="none" stroke="midnightblue" d="M299.59,-19.98C289.45,-18.85 279.23,-17.71 269.5,-16.63"/>
<polygon fill="midnightblue" stroke="midnightblue" points="299.35,-23.48 309.67,-21.11 300.12,-16.52 299.35,-23.48"/>
</g>
<!-- Node4 -->
<g id="node4" class="node">
<title>Node4</title>
<g id="a_node4"><a xlink:href="$classblockMem__C.html#a9230be465ff59edbed66fe536b3df2be" xlink:title=" ">
<polygon fill="white" stroke="black" points="0,-0.5 0,-19.5 108,-19.5 108,-0.5 0,-0.5"/>
<text text-anchor="middle" x="54" y="-7.5" font-family="Helvetica,sans-Serif" font-size="10.00">blockMem_C::print</text>
</a>
</g>
</g>
<!-- Node3&#45;&gt;Node4 -->
<g id="edge3" class="edge">
<title>Node3&#45;&gt;Node4</title>
<path fill="none" stroke="midnightblue" d="M138.36,-10C128.23,-10 117.94,-10 108.2,-10"/>
<polygon fill="midnightblue" stroke="midnightblue" points="138.41,-13.5 148.41,-10 138.41,-6.5 138.41,-13.5"/>
</g>
</g>
</svg>
