<?xml version="1.0" encoding="UTF-8" standalone="no"?>
<!DOCTYPE svg PUBLIC "-//W3C//DTD SVG 1.1//EN"
 "http://www.w3.org/Graphics/SVG/1.1/DTD/svg11.dtd">
<!-- Generated by graphviz version 3.0.0 (0)
 -->
<!-- Title: src/store.cpp Pages: 1 -->
<svg width="455pt" height="173pt"
 viewBox="0.00 0.00 454.50 173.00" xmlns="http://www.w3.org/2000/svg" xmlns:xlink="http://www.w3.org/1999/xlink">
<g id="graph0" class="graph" transform="scale(1 1) rotate(0) translate(4 169)">
<title>src/store.cpp</title>
<polygon fill="white" stroke="transparent" points="-4,4 -4,-169 450.5,-169 450.5,4 -4,4"/>
<!-- Node1 -->
<g id="node1" class="node">
<title>Node1</title>
<g id="a_node1"><a xlink:title=" ">
<polygon fill="#bfbfbf" stroke="black" points="178,-145.5 178,-164.5 257,-164.5 257,-145.5 178,-145.5"/>
<text text-anchor="middle" x="217.5" y="-152.5" font-family="Helvetica,sans-Serif" font-size="10.00">src/store.cpp</text>
</a>
</g>
</g>
<!-- Node2 -->
<g id="node2" class="node">
<title>Node2</title>
<g id="a_node2"><a xlink:href="$store_8h.html" xlink:title="To help with very simple data saving between MCU resets. For now only using inbuilt EEPROM.">
<polygon fill="white" stroke="black" points="6.5,-73 6.5,-92 56.5,-92 56.5,-73 6.5,-73"/>
<text text-anchor="middle" x="31.5" y="-80" font-family="Helvetica,sans-Serif" font-size="10.00">store.h</text>
</a>
</g>
</g>
<!-- Node1&#45;&gt;Node2 -->
<g id="edge1" class="edge">
<title>Node1&#45;&gt;Node2</title>
<path fill="none" stroke="midnightblue" d="M177.96,-146.35C146.4,-139.31 101.65,-127.17 65.5,-109 59.76,-106.11 53.98,-102.24 48.87,-98.38"/>
<polygon fill="midnightblue" stroke="midnightblue" points="50.99,-95.6 41,-92.09 46.62,-101.07 50.99,-95.6"/>
</g>
<!-- Node4 -->
<g id="node4" class="node">
<title>Node4</title>
<g id="a_node4"><a xlink:title=" ">
<polygon fill="white" stroke="#bfbfbf" points="74.5,-56.5 74.5,-108.5 236.5,-108.5 236.5,-56.5 74.5,-56.5"/>
<text text-anchor="start" x="82.5" y="-96.5" font-family="Helvetica,sans-Serif" font-size="10.00">/home/jmnc2/.platformio</text>
<text text-anchor="start" x="82.5" y="-85.5" font-family="Helvetica,sans-Serif" font-size="10.00">/packages/framework&#45;arduino</text>
<text text-anchor="start" x="82.5" y="-74.5" font-family="Helvetica,sans-Serif" font-size="10.00">&#45;avr/libraries/EEPROM/src</text>
<text text-anchor="middle" x="155.5" y="-63.5" font-family="Helvetica,sans-Serif" font-size="10.00">/EEPROM.h</text>
</a>
</g>
</g>
<!-- Node1&#45;&gt;Node4 -->
<g id="edge3" class="edge">
<title>Node1&#45;&gt;Node4</title>
<path fill="none" stroke="midnightblue" d="M209.9,-145.36C203.44,-138.02 193.76,-127 184.34,-116.29"/>
<polygon fill="midnightblue" stroke="midnightblue" points="186.81,-113.8 177.58,-108.6 181.55,-118.42 186.81,-113.8"/>
</g>
<!-- Node5 -->
<g id="node5" class="node">
<title>Node5</title>
<g id="a_node5"><a xlink:title=" ">
<polygon fill="white" stroke="#bfbfbf" points="255,-73 255,-92 304,-92 304,-73 255,-73"/>
<text text-anchor="middle" x="279.5" y="-80" font-family="Helvetica,sans-Serif" font-size="10.00">ui_io.h</text>
</a>
</g>
</g>
<!-- Node1&#45;&gt;Node5 -->
<g id="edge4" class="edge">
<title>Node1&#45;&gt;Node5</title>
<path fill="none" stroke="midnightblue" d="M225.1,-145.36C235.05,-134.04 252.68,-114 265.17,-99.79"/>
<polygon fill="midnightblue" stroke="midnightblue" points="267.86,-102.04 271.84,-92.22 262.6,-97.41 267.86,-102.04"/>
</g>
<!-- Node6 -->
<g id="node6" class="node">
<title>Node6</title>
<g id="a_node6"><a xlink:title=" ">
<polygon fill="white" stroke="#bfbfbf" points="322.5,-62 322.5,-103 446.5,-103 446.5,-62 322.5,-62"/>
<text text-anchor="start" x="330.5" y="-91" font-family="Helvetica,sans-Serif" font-size="10.00">/home/jmnc2/doc/src</text>
<text text-anchor="start" x="330.5" y="-80" font-family="Helvetica,sans-Serif" font-size="10.00">/Arduino/libraries/defs</text>
<text text-anchor="middle" x="384.5" y="-69" font-family="Helvetica,sans-Serif" font-size="10.00">/src/defs.h</text>
</a>
</g>
</g>
<!-- Node1&#45;&gt;Node6 -->
<g id="edge5" class="edge">
<title>Node1&#45;&gt;Node6</title>
<path fill="none" stroke="midnightblue" d="M237.64,-145.5C260.05,-136.04 297.22,-120.34 328.56,-107.12"/>
<polygon fill="midnightblue" stroke="midnightblue" points="330.22,-110.21 338.08,-103.1 327.5,-103.76 330.22,-110.21"/>
</g>
<!-- Node3 -->
<g id="node3" class="node">
<title>Node3</title>
<g id="a_node3"><a xlink:title=" ">
<polygon fill="white" stroke="#bfbfbf" points="0,-0.5 0,-19.5 63,-19.5 63,-0.5 0,-0.5"/>
<text text-anchor="middle" x="31.5" y="-7.5" font-family="Helvetica,sans-Serif" font-size="10.00">Arduino.h</text>
</a>
</g>
</g>
<!-- Node2&#45;&gt;Node3 -->
<g id="edge2" class="edge">
<title>Node2&#45;&gt;Node3</title>
<path fill="none" stroke="midnightblue" d="M31.5,-72.86C31.5,-62.18 31.5,-43.72 31.5,-29.73"/>
<polygon fill="midnightblue" stroke="midnightblue" points="35,-29.72 31.5,-19.72 28,-29.72 35,-29.72"/>
</g>
</g>
</svg>
