<?xml version="1.0" encoding="UTF-8" standalone="no"?>
<!DOCTYPE svg PUBLIC "-//W3C//DTD SVG 1.1//EN"
 "http://www.w3.org/Graphics/SVG/1.1/DTD/svg11.dtd">
<!-- Generated by graphviz version 3.0.0 (0)
 -->
<!-- Title: blockMem_C Pages: 1 -->
<!--zoomable 865 -->
<svg id="main" version="1.1" xmlns="http://www.w3.org/2000/svg" xmlns:xlink="http://www.w3.org/1999/xlink" xml:space="preserve" onload="init(evt)">
<style type="text/css"><![CDATA[
.edge:hover path { stroke: red; }
.edge:hover polygon { stroke: red; fill: red; }
]]></style>
<script type="text/javascript"><![CDATA[
var edges = document.getElementsByTagName('g');
if (edges && edges.length) {
  for (var i=0;i<edges.length;i++) {
    if (edges[i].id.substr(0,4)=='edge') {
      edges[i].setAttribute('class','edge');
    }
  }
}
]]></script>
        <defs>
                <circle id="rim" cx="0" cy="0" r="7"/>
                <circle id="rim2" cx="0" cy="0" r="3.5"/>
                <g id="zoomPlus">
                        <use xlink:href="#rim" fill="#404040">
                                <set attributeName="fill" to="#808080" begin="zoomplus.mouseover" end="zoomplus.mouseout"/>
                        </use>
                        <path d="M-4,0h8M0,-4v8" fill="none" stroke="white" stroke-width="1.5" pointer-events="none"/>
                </g>
                <g id="zoomMin">
                        <use xlink:href="#rim" fill="#404040">
                                <set attributeName="fill" to="#808080" begin="zoomminus.mouseover" end="zoomminus.mouseout"/>
                        </use>
                        <path d="M-4,0h8" fill="none" stroke="white" stroke-width="1.5" pointer-events="none"/>
                </g>
                <g id="dirArrow">
                        <path fill="none" stroke="white" stroke-width="1.5" d="M0,-3.0v7 M-2.5,-0.5L0,-3.0L2.5,-0.5"/>
                </g>
               <g id="resetDef">
                       <use xlink:href="#rim2" fill="#404040">
                               <set attributeName="fill" to="#808080" begin="reset.mouseover" end="reset.mouseout"/>
                       </use>
               </g>
        </defs>

<script type="text/javascript">
var viewWidth = 372;
var viewHeight = 865;
var sectionId = 'dynsection-0';
</script>
<script xlink:href="svgpan.js"/>
<svg id="graph" class="graph">
<g id="viewport">
<title>blockMem_C</title>
<polygon fill="white" stroke="transparent" points="-4,4 -4,-861 368,-861 368,4 -4,4"/>
<!-- Node1 -->
<g id="node1" class="node">
<title>Node1</title>
<g id="a_node1"><a xlink:title="Wrapper for storageBlock_C but working with only 1 block id(eg all the 1wire chips saved info).">
<polygon fill="#bfbfbf" stroke="black" points="0,-0.5 0,-255.5 134,-255.5 134,-0.5 0,-0.5"/>
<text text-anchor="middle" x="67" y="-243.5" font-family="Helvetica,sans-Serif" font-size="10.00">blockMem_C</text>
<polyline fill="none" stroke="black" points="0,-236.5 134,-236.5 "/>
<text text-anchor="middle" x="67" y="-224.5" font-family="Helvetica,sans-Serif" font-size="10.00"> </text>
<polyline fill="none" stroke="black" points="0,-217.5 134,-217.5 "/>
<text text-anchor="start" x="8" y="-205.5" font-family="Helvetica,sans-Serif" font-size="10.00">+ void setId(byte id1)</text>
<text text-anchor="start" x="8" y="-194.5" font-family="Helvetica,sans-Serif" font-size="10.00">+ byte getId()</text>
<text text-anchor="start" x="8" y="-183.5" font-family="Helvetica,sans-Serif" font-size="10.00">+ void setMemManager</text>
<text text-anchor="start" x="8" y="-172.5" font-family="Helvetica,sans-Serif" font-size="10.00">(storageBlock_C &amp;o)</text>
<text text-anchor="start" x="8" y="-161.5" font-family="Helvetica,sans-Serif" font-size="10.00">+ byte blockSize()</text>
<text text-anchor="start" x="8" y="-150.5" font-family="Helvetica,sans-Serif" font-size="10.00">+ byte slotSize()</text>
<text text-anchor="start" x="8" y="-139.5" font-family="Helvetica,sans-Serif" font-size="10.00">+ byte readByte(byte</text>
<text text-anchor="start" x="8" y="-128.5" font-family="Helvetica,sans-Serif" font-size="10.00"> slot, byte offset)</text>
<text text-anchor="start" x="8" y="-117.5" font-family="Helvetica,sans-Serif" font-size="10.00">+ bool readSlot(byte</text>
<text text-anchor="start" x="8" y="-106.5" font-family="Helvetica,sans-Serif" font-size="10.00"> slot, void *r)</text>
<text text-anchor="start" x="8" y="-95.5" font-family="Helvetica,sans-Serif" font-size="10.00">+ bool writeByte(byte</text>
<text text-anchor="start" x="8" y="-84.5" font-family="Helvetica,sans-Serif" font-size="10.00"> slot, byte offset,</text>
<text text-anchor="start" x="8" y="-73.5" font-family="Helvetica,sans-Serif" font-size="10.00"> byte value)</text>
<text text-anchor="start" x="8" y="-62.5" font-family="Helvetica,sans-Serif" font-size="10.00">+ bool writeSlot(byte</text>
<text text-anchor="start" x="8" y="-51.5" font-family="Helvetica,sans-Serif" font-size="10.00"> slot, void *r)</text>
<text text-anchor="start" x="8" y="-40.5" font-family="Helvetica,sans-Serif" font-size="10.00">+ void print()</text>
<text text-anchor="start" x="8" y="-29.5" font-family="Helvetica,sans-Serif" font-size="10.00">+ byte getSlots()</text>
<text text-anchor="start" x="8" y="-18.5" font-family="Helvetica,sans-Serif" font-size="10.00">&#45; byte blockStart()</text>
<text text-anchor="start" x="8" y="-7.5" font-family="Helvetica,sans-Serif" font-size="10.00">&#45; byte blockEnd()</text>
</a>
</g>
</g>
<!-- Node2 -->
<g id="node2" class="node">
<title>Node2</title>
<g id="a_node2"><a xlink:title=" ">
<polygon fill="white" stroke="black" points="78,-799.5 78,-856.5 116,-856.5 116,-799.5 78,-799.5"/>
<text text-anchor="middle" x="97" y="-844.5" font-family="Helvetica,sans-Serif" font-size="10.00">byte</text>
<polyline fill="none" stroke="black" points="78,-837.5 116,-837.5 "/>
<text text-anchor="middle" x="97" y="-825.5" font-family="Helvetica,sans-Serif" font-size="10.00"> </text>
<polyline fill="none" stroke="black" points="78,-818.5 116,-818.5 "/>
<text text-anchor="middle" x="97" y="-806.5" font-family="Helvetica,sans-Serif" font-size="10.00"> </text>
</a>
</g>
</g>
<!-- Node2&#45;&gt;Node1 -->
<g id="edge1" class="edge">
<title>Node2&#45;&gt;Node1</title>
<path fill="none" stroke="#404040" d="M94.38,-799.29C93.87,-793.26 93.38,-786.92 93,-781 81.79,-604.08 74.57,-399.82 70.65,-267.76"/>
<polygon fill="none" stroke="#404040" points="70.64,-267.6 66.47,-261.72 70.29,-255.61 74.47,-261.49 70.64,-267.6"/>
<text text-anchor="middle" x="95" y="-657" font-family="Helvetica,sans-Serif" font-size="10.00"> &#45;id</text>
</g>
<!-- Node3 -->
<g id="node3" class="node">
<title>Node3</title>
<g id="a_node3"><a xlink:href="classstorageBlock__C.html" target="_top" xlink:title="Blocks of storage. eg. 1 block for 1wire chips and another for room data. each of different lengths w...">
<polygon fill="white" stroke="black" points="114.5,-303.5 114.5,-635.5 257.5,-635.5 257.5,-303.5 114.5,-303.5"/>
<text text-anchor="middle" x="186" y="-623.5" font-family="Helvetica,sans-Serif" font-size="10.00">storageBlock_C</text>
<polyline fill="none" stroke="black" points="114.5,-616.5 257.5,-616.5 "/>
<text text-anchor="middle" x="186" y="-604.5" font-family="Helvetica,sans-Serif" font-size="10.00"> </text>
<polyline fill="none" stroke="black" points="114.5,-597.5 257.5,-597.5 "/>
<text text-anchor="start" x="122.5" y="-585.5" font-family="Helvetica,sans-Serif" font-size="10.00">+ storageBlock_C(byte</text>
<text text-anchor="start" x="122.5" y="-574.5" font-family="Helvetica,sans-Serif" font-size="10.00"> maxBlocks, storageBlock</text>
<text text-anchor="start" x="122.5" y="-563.5" font-family="Helvetica,sans-Serif" font-size="10.00">_T a[], byte startIndex=0)</text>
<text text-anchor="start" x="122.5" y="-552.5" font-family="Helvetica,sans-Serif" font-size="10.00">+ ~storageBlock_C()</text>
<text text-anchor="start" x="122.5" y="-541.5" font-family="Helvetica,sans-Serif" font-size="10.00">+ void leaveFirst(byte i)</text>
<text text-anchor="start" x="122.5" y="-530.5" font-family="Helvetica,sans-Serif" font-size="10.00">+ byte addBlock(byte</text>
<text text-anchor="start" x="122.5" y="-519.5" font-family="Helvetica,sans-Serif" font-size="10.00"> slots, byte recSize)</text>
<text text-anchor="start" x="122.5" y="-508.5" font-family="Helvetica,sans-Serif" font-size="10.00">+ byte blockSize(byte id)</text>
<text text-anchor="start" x="122.5" y="-497.5" font-family="Helvetica,sans-Serif" font-size="10.00">+ word blockStart(byte</text>
<text text-anchor="start" x="122.5" y="-486.5" font-family="Helvetica,sans-Serif" font-size="10.00"> blockId)</text>
<text text-anchor="start" x="122.5" y="-475.5" font-family="Helvetica,sans-Serif" font-size="10.00">+ word blockEnd(byte id)</text>
<text text-anchor="start" x="122.5" y="-464.5" font-family="Helvetica,sans-Serif" font-size="10.00">+ byte getSlots(byte id)</text>
<text text-anchor="start" x="122.5" y="-453.5" font-family="Helvetica,sans-Serif" font-size="10.00">+ byte readByte(byte</text>
<text text-anchor="start" x="122.5" y="-442.5" font-family="Helvetica,sans-Serif" font-size="10.00"> blockId, byte slot,</text>
<text text-anchor="start" x="122.5" y="-431.5" font-family="Helvetica,sans-Serif" font-size="10.00"> byte offset)</text>
<text text-anchor="start" x="122.5" y="-420.5" font-family="Helvetica,sans-Serif" font-size="10.00">+ bool readSlot(byte</text>
<text text-anchor="start" x="122.5" y="-409.5" font-family="Helvetica,sans-Serif" font-size="10.00"> blockId, byte slot,</text>
<text text-anchor="start" x="122.5" y="-398.5" font-family="Helvetica,sans-Serif" font-size="10.00"> void *r)</text>
<text text-anchor="start" x="122.5" y="-387.5" font-family="Helvetica,sans-Serif" font-size="10.00">+ bool writeByte(byte</text>
<text text-anchor="start" x="122.5" y="-376.5" font-family="Helvetica,sans-Serif" font-size="10.00"> blockId, byte slot,</text>
<text text-anchor="start" x="122.5" y="-365.5" font-family="Helvetica,sans-Serif" font-size="10.00"> byte offset, byte value)</text>
<text text-anchor="start" x="122.5" y="-354.5" font-family="Helvetica,sans-Serif" font-size="10.00">+ bool writeSlot(byte</text>
<text text-anchor="start" x="122.5" y="-343.5" font-family="Helvetica,sans-Serif" font-size="10.00"> blockId, byte slot,</text>
<text text-anchor="start" x="122.5" y="-332.5" font-family="Helvetica,sans-Serif" font-size="10.00"> void *r)</text>
<text text-anchor="start" x="122.5" y="-321.5" font-family="Helvetica,sans-Serif" font-size="10.00">+ void print(byte id)</text>
<text text-anchor="start" x="122.5" y="-310.5" font-family="Helvetica,sans-Serif" font-size="10.00">+ void printMemUsage()</text>
</a>
</g>
</g>
<!-- Node2&#45;&gt;Node3 -->
<g id="edge4" class="edge">
<title>Node2&#45;&gt;Node3</title>
<path fill="none" stroke="#404040" d="M96.31,-799.33C96.14,-770.09 97.47,-722.8 106,-683 108.54,-671.17 111.62,-659.12 115.07,-647.08"/>
<polygon fill="none" stroke="#404040" points="115.08,-647.05 112.95,-640.16 118.49,-635.54 120.62,-642.43 115.08,-647.05"/>
<text text-anchor="middle" x="136.5" y="-715" font-family="Helvetica,sans-Serif" font-size="10.00"> &#45;maxBlocks</text>
<text text-anchor="middle" x="136.5" y="-704" font-family="Helvetica,sans-Serif" font-size="10.00">&#45;slotsUsed</text>
</g>
<!-- Node5 -->
<g id="node5" class="node">
<title>Node5</title>
<g id="a_node5"><a xlink:href="store_8h.html#structstorageBlock__T" target="_top" xlink:title="Storage block TYPE info.">
<polygon fill="white" stroke="black" points="176,-683.5 176,-740.5 268,-740.5 268,-683.5 176,-683.5"/>
<text text-anchor="middle" x="222" y="-728.5" font-family="Helvetica,sans-Serif" font-size="10.00">storageBlock_T</text>
<polyline fill="none" stroke="black" points="176,-721.5 268,-721.5 "/>
<text text-anchor="middle" x="222" y="-709.5" font-family="Helvetica,sans-Serif" font-size="10.00"> </text>
<polyline fill="none" stroke="black" points="176,-702.5 268,-702.5 "/>
<text text-anchor="middle" x="222" y="-690.5" font-family="Helvetica,sans-Serif" font-size="10.00"> </text>
</a>
</g>
</g>
<!-- Node2&#45;&gt;Node5 -->
<g id="edge7" class="edge">
<title>Node2&#45;&gt;Node5</title>
<path fill="none" stroke="#404040" d="M116.26,-809.44C133.95,-793.3 160.72,-768.89 182.9,-748.66"/>
<polygon fill="none" stroke="#404040" points="182.9,-748.66 184.64,-741.66 191.76,-740.57 190.03,-747.57 182.9,-748.66"/>
<text text-anchor="middle" x="187" y="-773" font-family="Helvetica,sans-Serif" font-size="10.00"> +size</text>
<text text-anchor="middle" x="187" y="-762" font-family="Helvetica,sans-Serif" font-size="10.00">+slots</text>
</g>
<!-- Node3&#45;&gt;Node1 -->
<g id="edge2" class="edge">
<title>Node3&#45;&gt;Node1</title>
<path fill="none" stroke="#404040" d="M128.07,-303.23C123.81,-291.09 119.55,-278.91 115.36,-266.96"/>
<polygon fill="none" stroke="#404040" points="115.34,-266.9 109.58,-262.56 111.37,-255.58 117.13,-259.92 115.34,-266.9"/>
<text text-anchor="middle" x="158" y="-277" font-family="Helvetica,sans-Serif" font-size="10.00"> &#45;memManager</text>
</g>
<!-- Node4 -->
<g id="node4" class="node">
<title>Node4</title>
<g id="a_node4"><a xlink:title=" ">
<polygon fill="white" stroke="black" points="286,-683.5 286,-740.5 342,-740.5 342,-683.5 286,-683.5"/>
<text text-anchor="middle" x="314" y="-728.5" font-family="Helvetica,sans-Serif" font-size="10.00">uint16_t</text>
<polyline fill="none" stroke="black" points="286,-721.5 342,-721.5 "/>
<text text-anchor="middle" x="314" y="-709.5" font-family="Helvetica,sans-Serif" font-size="10.00"> </text>
<polyline fill="none" stroke="black" points="286,-702.5 342,-702.5 "/>
<text text-anchor="middle" x="314" y="-690.5" font-family="Helvetica,sans-Serif" font-size="10.00"> </text>
</a>
</g>
</g>
<!-- Node4&#45;&gt;Node3 -->
<g id="edge3" class="edge">
<title>Node4&#45;&gt;Node3</title>
<path fill="none" stroke="#404040" d="M299.32,-683.41C289.97,-665.84 277.05,-641.58 263.28,-615.71"/>
<polygon fill="none" stroke="#404040" points="263.19,-615.53 256.84,-612.11 257.55,-604.93 263.9,-608.35 263.19,-615.53"/>
<text text-anchor="middle" x="326.5" y="-657" font-family="Helvetica,sans-Serif" font-size="10.00"> &#45;nextStartAddr</text>
</g>
<!-- Node5&#45;&gt;Node3 -->
<g id="edge5" class="edge">
<title>Node5&#45;&gt;Node3</title>
<path fill="none" stroke="#404040" d="M217.87,-683.41C216.37,-673.39 214.54,-661.19 212.53,-647.76"/>
<polygon fill="none" stroke="#404040" points="212.5,-647.53 207.66,-642.19 210.72,-635.66 215.57,-641 212.5,-647.53"/>
<text text-anchor="middle" x="241" y="-657" font-family="Helvetica,sans-Serif" font-size="10.00"> +blocksA</text>
</g>
<!-- Node6 -->
<g id="node6" class="node">
<title>Node6</title>
<g id="a_node6"><a xlink:title=" ">
<polygon fill="white" stroke="black" points="201.5,-799.5 201.5,-856.5 242.5,-856.5 242.5,-799.5 201.5,-799.5"/>
<text text-anchor="middle" x="222" y="-844.5" font-family="Helvetica,sans-Serif" font-size="10.00">word</text>
<polyline fill="none" stroke="black" points="201.5,-837.5 242.5,-837.5 "/>
<text text-anchor="middle" x="222" y="-825.5" font-family="Helvetica,sans-Serif" font-size="10.00"> </text>
<polyline fill="none" stroke="black" points="201.5,-818.5 242.5,-818.5 "/>
<text text-anchor="middle" x="222" y="-806.5" font-family="Helvetica,sans-Serif" font-size="10.00"> </text>
</a>
</g>
</g>
<!-- Node6&#45;&gt;Node5 -->
<g id="edge6" class="edge">
<title>Node6&#45;&gt;Node5</title>
<path fill="none" stroke="#404040" d="M222,-799.4C222,-785.5 222,-768.39 222,-753.07"/>
<polygon fill="none" stroke="#404040" points="222,-752.74 218,-746.74 222,-740.74 226,-746.74 222,-752.74"/>
<text text-anchor="middle" x="239" y="-767.5" font-family="Helvetica,sans-Serif" font-size="10.00"> +start</text>
</g>
</g>
</svg>
        <g id="navigator" transform="translate(0 0)" fill="#404254">
                <rect fill="#f2f5e9" fill-opacity="0.5" stroke="#606060" stroke-width=".5" x="0" y="0" width="60" height="60"/>
                <use id="zoomplus" xlink:href="#zoomPlus" x="17" y="9" onmousedown="handleZoom(evt,'in')"/>
                <use id="zoomminus" xlink:href="#zoomMin" x="42" y="9" onmousedown="handleZoom(evt,'out')"/>
                <use id="reset" xlink:href="#resetDef" x="30" y="36" onmousedown="handleReset()"/>
                <g id="arrowUp" xlink:href="#dirArrow" transform="translate(30 24)" onmousedown="handlePan(0,-1)">
                  <use xlink:href="#rim" fill="#404040">
                        <set attributeName="fill" to="#808080" begin="arrowUp.mouseover" end="arrowUp.mouseout"/>
                  </use>
                  <path fill="none" stroke="white" stroke-width="1.5" d="M0,-3.0v7 M-2.5,-0.5L0,-3.0L2.5,-0.5"/>
                </g>
                <g id="arrowRight" xlink:href="#dirArrow" transform="rotate(90) translate(36 -43)" onmousedown="handlePan(1,0)">
                  <use xlink:href="#rim" fill="#404040">
                        <set attributeName="fill" to="#808080" begin="arrowRight.mouseover" end="arrowRight.mouseout"/>
                  </use>
                  <path fill="none" stroke="white" stroke-width="1.5" d="M0,-3.0v7 M-2.5,-0.5L0,-3.0L2.5,-0.5"/>
                </g>
                <g id="arrowDown" xlink:href="#dirArrow" transform="rotate(180) translate(-30 -48)" onmousedown="handlePan(0,1)">
                  <use xlink:href="#rim" fill="#404040">
                        <set attributeName="fill" to="#808080" begin="arrowDown.mouseover" end="arrowDown.mouseout"/>
                  </use>
                  <path fill="none" stroke="white" stroke-width="1.5" d="M0,-3.0v7 M-2.5,-0.5L0,-3.0L2.5,-0.5"/>
                </g>
                <g id="arrowLeft" xlink:href="#dirArrow" transform="rotate(270) translate(-36 17)" onmousedown="handlePan(-1,0)">
                  <use xlink:href="#rim" fill="#404040">
                        <set attributeName="fill" to="#808080" begin="arrowLeft.mouseover" end="arrowLeft.mouseout"/>
                  </use>
                  <path fill="none" stroke="white" stroke-width="1.5" d="M0,-3.0v7 M-2.5,-0.5L0,-3.0L2.5,-0.5"/>
                </g>
        </g>
        <svg viewBox="0 0 15 15" width="100%" height="30px" preserveAspectRatio="xMaxYMin meet">
         <g id="arrow_out" transform="scale(0.3 0.3)">
          <a xlink:href="classblockMem__C__coll__graph_org.svg" target="_base">
           <rect id="button" ry="5" rx="5" y="6" x="6" height="38" width="38"
                fill="#f2f5e9" fill-opacity="0.5" stroke="#606060" stroke-width="1.0"/>
           <path id="arrow"
             d="M 11.500037,31.436501 C 11.940474,20.09759 22.043105,11.32322 32.158766,21.979434 L 37.068811,17.246167 C 37.068811,17.246167 37.088388,32 37.088388,32 L 22.160133,31.978069 C 22.160133,31.978069 26.997745,27.140456 26.997745,27.140456 C 18.528582,18.264221 13.291696,25.230495 11.500037,31.436501 z"
             style="fill:#404040;"/>
          </a>
         </g>
        </svg>
</svg>
