<?xml version="1.0" encoding="UTF-8" standalone="no"?>
<!DOCTYPE svg PUBLIC "-//W3C//DTD SVG 1.1//EN"
 "http://www.w3.org/Graphics/SVG/1.1/DTD/svg11.dtd">
<!-- Generated by graphviz version 3.0.0 (0)
 -->
<!-- Title: storageBlock_C Pages: 1 -->
<svg width="297pt" height="562pt"
 viewBox="0.00 0.00 297.00 562.00" xmlns="http://www.w3.org/2000/svg" xmlns:xlink="http://www.w3.org/1999/xlink">
<g id="graph0" class="graph" transform="scale(1 1) rotate(0) translate(4 558)">
<title>storageBlock_C</title>
<polygon fill="white" stroke="transparent" points="-4,4 -4,-558 293,-558 293,4 -4,4"/>
<!-- Node1 -->
<g id="node1" class="node">
<title>Node1</title>
<g id="a_node1"><a xlink:title="Blocks of storage. eg. 1 block for 1wire chips and another for room data. each of different lengths w...">
<polygon fill="#bfbfbf" stroke="black" points="46.5,-0.5 46.5,-332.5 189.5,-332.5 189.5,-0.5 46.5,-0.5"/>
<text text-anchor="middle" x="118" y="-320.5" font-family="Helvetica,sans-Serif" font-size="10.00">storageBlock_C</text>
<polyline fill="none" stroke="black" points="46.5,-313.5 189.5,-313.5 "/>
<text text-anchor="middle" x="118" y="-301.5" font-family="Helvetica,sans-Serif" font-size="10.00"> </text>
<polyline fill="none" stroke="black" points="46.5,-294.5 189.5,-294.5 "/>
<text text-anchor="start" x="54.5" y="-282.5" font-family="Helvetica,sans-Serif" font-size="10.00">+ storageBlock_C(byte</text>
<text text-anchor="start" x="54.5" y="-271.5" font-family="Helvetica,sans-Serif" font-size="10.00"> maxBlocks, storageBlock</text>
<text text-anchor="start" x="54.5" y="-260.5" font-family="Helvetica,sans-Serif" font-size="10.00">_T a[], byte startIndex=0)</text>
<text text-anchor="start" x="54.5" y="-249.5" font-family="Helvetica,sans-Serif" font-size="10.00">+ ~storageBlock_C()</text>
<text text-anchor="start" x="54.5" y="-238.5" font-family="Helvetica,sans-Serif" font-size="10.00">+ void leaveFirst(byte i)</text>
<text text-anchor="start" x="54.5" y="-227.5" font-family="Helvetica,sans-Serif" font-size="10.00">+ byte addBlock(byte</text>
<text text-anchor="start" x="54.5" y="-216.5" font-family="Helvetica,sans-Serif" font-size="10.00"> slots, byte recSize)</text>
<text text-anchor="start" x="54.5" y="-205.5" font-family="Helvetica,sans-Serif" font-size="10.00">+ byte blockSize(byte id)</text>
<text text-anchor="start" x="54.5" y="-194.5" font-family="Helvetica,sans-Serif" font-size="10.00">+ word blockStart(byte</text>
<text text-anchor="start" x="54.5" y="-183.5" font-family="Helvetica,sans-Serif" font-size="10.00"> blockId)</text>
<text text-anchor="start" x="54.5" y="-172.5" font-family="Helvetica,sans-Serif" font-size="10.00">+ word blockEnd(byte id)</text>
<text text-anchor="start" x="54.5" y="-161.5" font-family="Helvetica,sans-Serif" font-size="10.00">+ byte getSlots(byte id)</text>
<text text-anchor="start" x="54.5" y="-150.5" font-family="Helvetica,sans-Serif" font-size="10.00">+ byte readByte(byte</text>
<text text-anchor="start" x="54.5" y="-139.5" font-family="Helvetica,sans-Serif" font-size="10.00"> blockId, byte slot,</text>
<text text-anchor="start" x="54.5" y="-128.5" font-family="Helvetica,sans-Serif" font-size="10.00"> byte offset)</text>
<text text-anchor="start" x="54.5" y="-117.5" font-family="Helvetica,sans-Serif" font-size="10.00">+ bool readSlot(byte</text>
<text text-anchor="start" x="54.5" y="-106.5" font-family="Helvetica,sans-Serif" font-size="10.00"> blockId, byte slot,</text>
<text text-anchor="start" x="54.5" y="-95.5" font-family="Helvetica,sans-Serif" font-size="10.00"> void *r)</text>
<text text-anchor="start" x="54.5" y="-84.5" font-family="Helvetica,sans-Serif" font-size="10.00">+ bool writeByte(byte</text>
<text text-anchor="start" x="54.5" y="-73.5" font-family="Helvetica,sans-Serif" font-size="10.00"> blockId, byte slot,</text>
<text text-anchor="start" x="54.5" y="-62.5" font-family="Helvetica,sans-Serif" font-size="10.00"> byte offset, byte value)</text>
<text text-anchor="start" x="54.5" y="-51.5" font-family="Helvetica,sans-Serif" font-size="10.00">+ bool writeSlot(byte</text>
<text text-anchor="start" x="54.5" y="-40.5" font-family="Helvetica,sans-Serif" font-size="10.00"> blockId, byte slot,</text>
<text text-anchor="start" x="54.5" y="-29.5" font-family="Helvetica,sans-Serif" font-size="10.00"> void *r)</text>
<text text-anchor="start" x="54.5" y="-18.5" font-family="Helvetica,sans-Serif" font-size="10.00">+ void print(byte id)</text>
<text text-anchor="start" x="54.5" y="-7.5" font-family="Helvetica,sans-Serif" font-size="10.00">+ void printMemUsage()</text>
</a>
</g>
</g>
<!-- Node2 -->
<g id="node2" class="node">
<title>Node2</title>
<g id="a_node2"><a xlink:title=" ">
<polygon fill="white" stroke="black" points="0,-380.5 0,-437.5 56,-437.5 56,-380.5 0,-380.5"/>
<text text-anchor="middle" x="28" y="-425.5" font-family="Helvetica,sans-Serif" font-size="10.00">uint16_t</text>
<polyline fill="none" stroke="black" points="0,-418.5 56,-418.5 "/>
<text text-anchor="middle" x="28" y="-406.5" font-family="Helvetica,sans-Serif" font-size="10.00"> </text>
<polyline fill="none" stroke="black" points="0,-399.5 56,-399.5 "/>
<text text-anchor="middle" x="28" y="-387.5" font-family="Helvetica,sans-Serif" font-size="10.00"> </text>
</a>
</g>
</g>
<!-- Node2&#45;&gt;Node1 -->
<g id="edge1" class="edge">
<title>Node2&#45;&gt;Node1</title>
<path fill="none" stroke="#404040" d="M26.1,-380.44C26.07,-371 26.75,-360.43 29,-351 32.31,-337.14 36.78,-323.11 41.96,-309.3"/>
<polygon fill="none" stroke="#404040" points="42.1,-308.93 40.56,-301.89 46.47,-297.76 48.01,-304.8 42.1,-308.93"/>
<text text-anchor="middle" x="66.5" y="-354" font-family="Helvetica,sans-Serif" font-size="10.00"> &#45;nextStartAddr</text>
</g>
<!-- Node3 -->
<g id="node3" class="node">
<title>Node3</title>
<g id="a_node3"><a xlink:title=" ">
<polygon fill="white" stroke="black" points="133,-496.5 133,-553.5 171,-553.5 171,-496.5 133,-496.5"/>
<text text-anchor="middle" x="152" y="-541.5" font-family="Helvetica,sans-Serif" font-size="10.00">byte</text>
<polyline fill="none" stroke="black" points="133,-534.5 171,-534.5 "/>
<text text-anchor="middle" x="152" y="-522.5" font-family="Helvetica,sans-Serif" font-size="10.00"> </text>
<polyline fill="none" stroke="black" points="133,-515.5 171,-515.5 "/>
<text text-anchor="middle" x="152" y="-503.5" font-family="Helvetica,sans-Serif" font-size="10.00"> </text>
</a>
</g>
</g>
<!-- Node3&#45;&gt;Node1 -->
<g id="edge2" class="edge">
<title>Node3&#45;&gt;Node1</title>
<path fill="none" stroke="#404040" d="M141.98,-496.13C136.48,-479.49 130.16,-457.81 127,-438 122.23,-408.1 119.3,-376.11 117.57,-344.97"/>
<polygon fill="none" stroke="#404040" points="117.55,-344.61 113.25,-338.82 116.94,-332.63 121.24,-338.42 117.55,-344.61"/>
<text text-anchor="middle" x="157.5" y="-412" font-family="Helvetica,sans-Serif" font-size="10.00"> &#45;maxBlocks</text>
<text text-anchor="middle" x="157.5" y="-401" font-family="Helvetica,sans-Serif" font-size="10.00">&#45;slotsUsed</text>
</g>
<!-- Node4 -->
<g id="node4" class="node">
<title>Node4</title>
<g id="a_node4"><a xlink:href="store_8h.html#structstorageBlock__T" target="_top" xlink:title="Storage block TYPE info.">
<polygon fill="white" stroke="black" points="197,-380.5 197,-437.5 289,-437.5 289,-380.5 197,-380.5"/>
<text text-anchor="middle" x="243" y="-425.5" font-family="Helvetica,sans-Serif" font-size="10.00">storageBlock_T</text>
<polyline fill="none" stroke="black" points="197,-418.5 289,-418.5 "/>
<text text-anchor="middle" x="243" y="-406.5" font-family="Helvetica,sans-Serif" font-size="10.00"> </text>
<polyline fill="none" stroke="black" points="197,-399.5 289,-399.5 "/>
<text text-anchor="middle" x="243" y="-387.5" font-family="Helvetica,sans-Serif" font-size="10.00"> </text>
</a>
</g>
</g>
<!-- Node3&#45;&gt;Node4 -->
<g id="edge5" class="edge">
<title>Node3&#45;&gt;Node4</title>
<path fill="none" stroke="#404040" d="M171.08,-500.1C183.19,-484.93 199.12,-464.97 212.91,-447.69"/>
<polygon fill="none" stroke="#404040" points="213.26,-447.26 213.87,-440.08 220.74,-437.88 220.12,-445.07 213.26,-447.26"/>
<text text-anchor="middle" x="222" y="-470" font-family="Helvetica,sans-Serif" font-size="10.00"> +size</text>
<text text-anchor="middle" x="222" y="-459" font-family="Helvetica,sans-Serif" font-size="10.00">+slots</text>
</g>
<!-- Node4&#45;&gt;Node1 -->
<g id="edge3" class="edge">
<title>Node4&#45;&gt;Node1</title>
<path fill="none" stroke="#404040" d="M228.66,-380.41C219.91,-363.57 207.96,-340.58 195.13,-315.91"/>
<polygon fill="none" stroke="#404040" points="195.13,-315.89 188.81,-312.41 189.59,-305.24 195.91,-308.72 195.13,-315.89"/>
<text text-anchor="middle" x="245" y="-354" font-family="Helvetica,sans-Serif" font-size="10.00"> +blocksA</text>
</g>
<!-- Node5 -->
<g id="node5" class="node">
<title>Node5</title>
<g id="a_node5"><a xlink:title=" ">
<polygon fill="white" stroke="black" points="222.5,-496.5 222.5,-553.5 263.5,-553.5 263.5,-496.5 222.5,-496.5"/>
<text text-anchor="middle" x="243" y="-541.5" font-family="Helvetica,sans-Serif" font-size="10.00">word</text>
<polyline fill="none" stroke="black" points="222.5,-534.5 263.5,-534.5 "/>
<text text-anchor="middle" x="243" y="-522.5" font-family="Helvetica,sans-Serif" font-size="10.00"> </text>
<polyline fill="none" stroke="black" points="222.5,-515.5 263.5,-515.5 "/>
<text text-anchor="middle" x="243" y="-503.5" font-family="Helvetica,sans-Serif" font-size="10.00"> </text>
</a>
</g>
</g>
<!-- Node5&#45;&gt;Node4 -->
<g id="edge4" class="edge">
<title>Node5&#45;&gt;Node4</title>
<path fill="none" stroke="#404040" d="M243,-496.4C243,-482.5 243,-465.39 243,-450.07"/>
<polygon fill="none" stroke="#404040" points="243,-449.74 239,-443.74 243,-437.74 247,-443.74 243,-449.74"/>
<text text-anchor="middle" x="260" y="-464.5" font-family="Helvetica,sans-Serif" font-size="10.00"> +start</text>
</g>
</g>
</svg>
