<?xml version="1.0" encoding="UTF-8" standalone="no"?>
<!DOCTYPE svg PUBLIC "-//W3C//DTD SVG 1.1//EN"
 "http://www.w3.org/Graphics/SVG/1.1/DTD/svg11.dtd">
<!-- Generated by graphviz version 3.0.0 (0)
 -->
<!-- Title: blockMem_C::print Pages: 1 -->
<svg width="454pt" height="66pt"
 viewBox="0.00 0.00 454.00 66.00" xmlns="http://www.w3.org/2000/svg" xmlns:xlink="http://www.w3.org/1999/xlink">
<g id="graph0" class="graph" transform="scale(1 1) rotate(0) translate(4 62)">
<title>blockMem_C::print</title>
<polygon fill="white" stroke="transparent" points="-4,4 -4,-62 450,-62 450,4 -4,4"/>
<!-- Node1 -->
<g id="node1" class="node">
<title>Node1</title>
<g id="a_node1"><a xlink:title=" ">
<polygon fill="#bfbfbf" stroke="black" points="0,-19.5 0,-38.5 108,-38.5 108,-19.5 0,-19.5"/>
<text text-anchor="middle" x="54" y="-26.5" font-family="Helvetica,sans-Serif" font-size="10.00">blockMem_C::print</text>
</a>
</g>
</g>
<!-- Node2 -->
<g id="node2" class="node">
<title>Node2</title>
<g id="a_node2"><a xlink:href="classstorageBlock__C.html#a5689bada4bede0c81ab36fe2f06cc9f0" target="_top" xlink:title="print info about the storage block to the serial.">
<polygon fill="white" stroke="black" points="144,-19.5 144,-38.5 265,-38.5 265,-19.5 144,-19.5"/>
<text text-anchor="middle" x="204.5" y="-26.5" font-family="Helvetica,sans-Serif" font-size="10.00">storageBlock_C::print</text>
</a>
</g>
</g>
<!-- Node1&#45;&gt;Node2 -->
<g id="edge1" class="edge">
<title>Node1&#45;&gt;Node2</title>
<path fill="none" stroke="midnightblue" d="M108.19,-29C116.51,-29 125.21,-29 133.82,-29"/>
<polygon fill="midnightblue" stroke="midnightblue" points="133.87,-32.5 143.87,-29 133.87,-25.5 133.87,-32.5"/>
</g>
<!-- Node3 -->
<g id="node3" class="node">
<title>Node3</title>
<g id="a_node3"><a xlink:href="classstorageBlock__C.html#a2467b7e6f601f96efc42a6c32a023522" target="_top" xlink:title="get block end index. i.e. the address of last byte used by the block. If block size is 0 there isn&#39;t ...">
<polygon fill="white" stroke="black" points="302,-38.5 302,-57.5 445,-57.5 445,-38.5 302,-38.5"/>
<text text-anchor="middle" x="373.5" y="-45.5" font-family="Helvetica,sans-Serif" font-size="10.00">storageBlock_C::blockEnd</text>
</a>
</g>
</g>
<!-- Node2&#45;&gt;Node3 -->
<g id="edge2" class="edge">
<title>Node2&#45;&gt;Node3</title>
<path fill="none" stroke="midnightblue" d="M265.32,-35.81C273.96,-36.79 282.96,-37.81 291.92,-38.83"/>
<polygon fill="midnightblue" stroke="midnightblue" points="291.66,-42.33 301.99,-39.98 292.45,-35.37 291.66,-42.33"/>
</g>
<!-- Node4 -->
<g id="node4" class="node">
<title>Node4</title>
<g id="a_node4"><a xlink:href="classstorageBlock__C.html#ab118a805d45d5b6208fbd31dface7e39" target="_top" xlink:title="get the storage space size in bytes reserved for the block.">
<polygon fill="white" stroke="black" points="301,-0.5 301,-19.5 446,-19.5 446,-0.5 301,-0.5"/>
<text text-anchor="middle" x="373.5" y="-7.5" font-family="Helvetica,sans-Serif" font-size="10.00">storageBlock_C::blockSize</text>
</a>
</g>
</g>
<!-- Node2&#45;&gt;Node4 -->
<g id="edge3" class="edge">
<title>Node2&#45;&gt;Node4</title>
<path fill="none" stroke="midnightblue" d="M265.32,-22.19C273.59,-21.25 282.21,-20.27 290.79,-19.3"/>
<polygon fill="midnightblue" stroke="midnightblue" points="291.3,-22.76 300.84,-18.15 290.51,-15.81 291.3,-22.76"/>
</g>
</g>
</svg>
