<?xml version="1.0" encoding="UTF-8" standalone="no"?>
<!DOCTYPE svg PUBLIC "-//W3C//DTD SVG 1.1//EN"
 "http://www.w3.org/Graphics/SVG/1.1/DTD/svg11.dtd">
<!-- Generated by graphviz version 3.0.0 (0)
 -->
<!-- Title: storageBlock_T Pages: 1 -->
<svg width="107pt" height="182pt"
 viewBox="0.00 0.00 106.50 182.00" xmlns="http://www.w3.org/2000/svg" xmlns:xlink="http://www.w3.org/1999/xlink">
<g id="graph0" class="graph" transform="scale(1 1) rotate(0) translate(4 178)">
<title>storageBlock_T</title>
<polygon fill="white" stroke="transparent" points="-4,4 -4,-178 102.5,-178 102.5,4 -4,4"/>
<!-- Node1 -->
<g id="node1" class="node">
<title>Node1</title>
<g id="a_node1"><a xlink:title="Storage block TYPE info.">
<polygon fill="#bfbfbf" stroke="black" points="3.5,-0.5 3.5,-57.5 95.5,-57.5 95.5,-0.5 3.5,-0.5"/>
<text text-anchor="middle" x="49.5" y="-45.5" font-family="Helvetica,sans-Serif" font-size="10.00">storageBlock_T</text>
<polyline fill="none" stroke="black" points="3.5,-38.5 95.5,-38.5 "/>
<text text-anchor="middle" x="49.5" y="-26.5" font-family="Helvetica,sans-Serif" font-size="10.00"> </text>
<polyline fill="none" stroke="black" points="3.5,-19.5 95.5,-19.5 "/>
<text text-anchor="middle" x="49.5" y="-7.5" font-family="Helvetica,sans-Serif" font-size="10.00"> </text>
</a>
</g>
</g>
<!-- Node2 -->
<g id="node2" class="node">
<title>Node2</title>
<g id="a_node2"><a xlink:title=" ">
<polygon fill="white" stroke="black" points="0,-116.5 0,-173.5 41,-173.5 41,-116.5 0,-116.5"/>
<text text-anchor="middle" x="20.5" y="-161.5" font-family="Helvetica,sans-Serif" font-size="10.00">word</text>
<polyline fill="none" stroke="black" points="0,-154.5 41,-154.5 "/>
<text text-anchor="middle" x="20.5" y="-142.5" font-family="Helvetica,sans-Serif" font-size="10.00"> </text>
<polyline fill="none" stroke="black" points="0,-135.5 41,-135.5 "/>
<text text-anchor="middle" x="20.5" y="-123.5" font-family="Helvetica,sans-Serif" font-size="10.00"> </text>
</a>
</g>
</g>
<!-- Node2&#45;&gt;Node1 -->
<g id="edge1" class="edge">
<title>Node2&#45;&gt;Node1</title>
<path fill="none" stroke="#404040" d="M18.23,-116.39C17.97,-103.84 18.78,-88.94 22.5,-76 23.2,-73.57 24.06,-71.13 25.03,-68.71"/>
<polygon fill="none" stroke="#404040" points="25.12,-68.53 24.1,-61.39 30.29,-57.7 31.32,-64.84 25.12,-68.53"/>
<text text-anchor="middle" x="39.5" y="-84.5" font-family="Helvetica,sans-Serif" font-size="10.00"> +start</text>
</g>
<!-- Node3 -->
<g id="node3" class="node">
<title>Node3</title>
<g id="a_node3"><a xlink:title=" ">
<polygon fill="white" stroke="black" points="59.5,-116.5 59.5,-173.5 97.5,-173.5 97.5,-116.5 59.5,-116.5"/>
<text text-anchor="middle" x="78.5" y="-161.5" font-family="Helvetica,sans-Serif" font-size="10.00">byte</text>
<polyline fill="none" stroke="black" points="59.5,-154.5 97.5,-154.5 "/>
<text text-anchor="middle" x="78.5" y="-142.5" font-family="Helvetica,sans-Serif" font-size="10.00"> </text>
<polyline fill="none" stroke="black" points="59.5,-135.5 97.5,-135.5 "/>
<text text-anchor="middle" x="78.5" y="-123.5" font-family="Helvetica,sans-Serif" font-size="10.00"> </text>
</a>
</g>
</g>
<!-- Node3&#45;&gt;Node1 -->
<g id="edge2" class="edge">
<title>Node3&#45;&gt;Node1</title>
<path fill="none" stroke="#404040" d="M71.48,-116.4C67.91,-102.36 63.5,-85.05 59.58,-69.61"/>
<polygon fill="none" stroke="#404040" points="59.51,-69.37 54.16,-64.54 56.56,-57.74 61.91,-62.57 59.51,-69.37"/>
<text text-anchor="middle" x="82.5" y="-90" font-family="Helvetica,sans-Serif" font-size="10.00"> +size</text>
<text text-anchor="middle" x="82.5" y="-79" font-family="Helvetica,sans-Serif" font-size="10.00">+slots</text>
</g>
</g>
</svg>
